<svg xmlns="http://www.w3.org/2000/svg" xmlns:xlink="http://www.w3.org/1999/xlink" xmlns:lucid="lucid" width="2120.14" height="1726.8"><g transform="translate(0 0)" lucid:page-tab-id="pVXRgBercB.W"><path d="M0 0h2120.14v1726.8H0z" fill="#fff"/><path d="M900 160h200v259H900z" fill="#ef8d22"/><path d="M900 231h200v31H900zM900 294h200v31H900zM900 356h200v31H900z" fill="#d77f1f"/><path d="M900 160h200v259H900zM900 200h200M960 200v219M1030 200v219" stroke="#000" fill="none"/><use xlink:href="#a" transform="matrix(1,0,0,1,910,160) translate(65.1888888888889 22.933333333333334)"/><use xlink:href="#b" transform="matrix(1,0,0,1,905,202.5) translate(12.679012345679011 16.555555555555557)"/><use xlink:href="#c" transform="matrix(1,0,0,1,965,202.5) translate(0 16.555555555555557)"/><use xlink:href="#d" transform="matrix(1,0,0,1,1035,202.5) translate(0 16.555555555555557)"/><use xlink:href="#e" transform="matrix(1,0,0,1,905,233.5) translate(13.19753086419753 16.555555555555557)"/><use xlink:href="#f" transform="matrix(1,0,0,1,965,233.5) translate(0 16.555555555555557)"/><use xlink:href="#d" transform="matrix(1,0,0,1,1035,233.5) translate(0 16.555555555555557)"/><use xlink:href="#g" transform="matrix(1,0,0,1,905,264.5) translate(13.049999999999999 17.1)"/><use xlink:href="#h" transform="matrix(1,0,0,1,965,264.5) translate(0 17.1)"/><use xlink:href="#i" transform="matrix(1,0,0,1,1035,264.5) translate(0 17.1)"/><use xlink:href="#j" transform="matrix(1,0,0,1,905,296.5) translate(8.728395061728392 16.555555555555557)"/><use xlink:href="#k" transform="matrix(1,0,0,1,965,296.5) translate(10.05740740740741 15.933333333333334)"/><use xlink:href="#l" transform="matrix(1,0,0,1,1035,296.5) translate(0 16.555555555555557)"/><use xlink:href="#j" transform="matrix(1,0,0,1,905,327.5) translate(8.728395061728392 16.555555555555557)"/><use xlink:href="#m" transform="matrix(1,0,0,1,965,327.5) translate(0 16.555555555555557)"/><use xlink:href="#n" transform="matrix(1,0,0,1,1035,327.5) translate(0 16.555555555555557)"/><use xlink:href="#j" transform="matrix(1,0,0,1,905,358.5) translate(8.728395061728392 16.555555555555557)"/><use xlink:href="#o" transform="matrix(1,0,0,1,965,358.5) translate(0 16.555555555555557)"/><use xlink:href="#l" transform="matrix(1,0,0,1,1035,358.5) translate(0 16.555555555555557)"/><use xlink:href="#g" transform="matrix(1,0,0,1,905,389.5) translate(13.049999999999999 17.1)"/><use xlink:href="#p" transform="matrix(1,0,0,1,965,389.5) translate(0 16.166666666666668)"/><use xlink:href="#i" transform="matrix(1,0,0,1,1035,389.5) translate(0 17.1)"/><path d="M700 480h200v164H700z" fill="#3aa6dd"/><path d="M700 480h200v164H700zM700 520h200M760 520v124M830 520v124" stroke="#000" fill="none"/><use xlink:href="#q" transform="matrix(1,0,0,1,710,480) translate(48.95370370370371 22.933333333333334)"/><use xlink:href="#r" transform="matrix(1,0,0,1,710,480) translate(85.57962962962964 22.933333333333334)"/><use xlink:href="#b" transform="matrix(1,0,0,1,705,522.5) translate(12.679012345679011 16.555555555555557)"/><use xlink:href="#s" transform="matrix(1,0,0,1,765,522.5) translate(0 16.555555555555557)"/><use xlink:href="#d" transform="matrix(1,0,0,1,835,522.5) translate(0 16.555555555555557)"/><use xlink:href="#e" transform="matrix(1,0,0,1,705,553.5) translate(13.19753086419753 16.555555555555557)"/><use xlink:href="#t" transform="matrix(1,0,0,1,765,553.5) translate(1.9500000000000028 15.933333333333334)"/><use xlink:href="#l" transform="matrix(1,0,0,1,835,553.5) translate(0 16.555555555555557)"/><use xlink:href="#e" transform="matrix(1,0,0,1,705,584.5) translate(13.19753086419753 16.555555555555557)"/><use xlink:href="#f" transform="matrix(1,0,0,1,765,584.5) translate(0 16.555555555555557)"/><use xlink:href="#l" transform="matrix(1,0,0,1,835,584.5) translate(0 16.555555555555557)"/><use xlink:href="#u" transform="matrix(1,0,0,1,705,615.5) translate(8.728395061728392 16.555555555555557)"/><use xlink:href="#o" transform="matrix(1,0,0,1,765,615.5) translate(0 16.555555555555557)"/><use xlink:href="#l" transform="matrix(1,0,0,1,835,615.5) translate(0 16.555555555555557)"/><path d="M1120 480h200v164h-200z" fill="#3aa6dd"/><path d="M1120 480h200v164h-200zM1120 520h200M1180 520v124M1250 520v124" stroke="#000" fill="none"/><use xlink:href="#q" transform="matrix(1,0,0,1,1130,480) translate(46.44814814814816 22.933333333333334)"/><use xlink:href="#v" transform="matrix(1,0,0,1,1130,480) translate(83.07407407407408 22.933333333333334)"/><use xlink:href="#b" transform="matrix(1,0,0,1,1125,522.5) translate(12.679012345679011 16.555555555555557)"/><use xlink:href="#s" transform="matrix(1,0,0,1,1185,522.5) translate(0 16.555555555555557)"/><use xlink:href="#d" transform="matrix(1,0,0,1,1255,522.5) translate(0 16.555555555555557)"/><use xlink:href="#e" transform="matrix(1,0,0,1,1125,553.5) translate(13.19753086419753 16.555555555555557)"/><use xlink:href="#t" transform="matrix(1,0,0,1,1185,553.5) translate(1.9500000000000028 15.933333333333334)"/><use xlink:href="#l" transform="matrix(1,0,0,1,1255,553.5) translate(0 16.555555555555557)"/><use xlink:href="#e" transform="matrix(1,0,0,1,1125,584.5) translate(13.19753086419753 16.555555555555557)"/><use xlink:href="#f" transform="matrix(1,0,0,1,1185,584.5) translate(0 16.555555555555557)"/><use xlink:href="#l" transform="matrix(1,0,0,1,1255,584.5) translate(0 16.555555555555557)"/><use xlink:href="#u" transform="matrix(1,0,0,1,1125,615.5) translate(8.728395061728392 16.555555555555557)"/><use xlink:href="#w" transform="matrix(1,0,0,1,1185,615.5) translate(0 16.555555555555557)"/><use xlink:href="#n" transform="matrix(1,0,0,1,1255,615.5) translate(0 16.555555555555557)"/><path d="M698.5 566.5h-39v-351h239" stroke="#000" stroke-width="2" fill="none"/><path d="M699.5 567.5h-1.03v-2h1.03zM899.5 216.5h-1.03v-2h1.03z"/><path d="M1101.5 215.5h239v351h-19" stroke="#000" stroke-width="2" fill="none"/><path d="M1101.53 216.5h-1.03v-2h1.03zM1321.53 567.5h-1.03v-2h1.03z"/><path d="M1760 191.06h200v133h-200z" fill="#ef8d22"/><path d="M1760 262.06h200v31h-200z" fill="#d77f1f"/><path d="M1760 191.06h200v133h-200zM1760 231.06h200M1820 231.06v93M1890 231.06v93" stroke="#000" fill="none"/><use xlink:href="#x" transform="matrix(1,0,0,1,1770,191.055) translate(69.65 22.933333333333334)"/><use xlink:href="#b" transform="matrix(1,0,0,1,1765,233.555) translate(12.679012345679011 16.555555555555557)"/><use xlink:href="#c" transform="matrix(1,0,0,1,1825,233.555) translate(0 16.555555555555557)"/><use xlink:href="#d" transform="matrix(1,0,0,1,1895,233.555) translate(0 16.555555555555557)"/><use xlink:href="#j" transform="matrix(1,0,0,1,1765,264.555) translate(8.728395061728392 16.555555555555557)"/><use xlink:href="#k" transform="matrix(1,0,0,1,1825,264.555) translate(10.05740740740741 15.933333333333334)"/><use xlink:href="#n" transform="matrix(1,0,0,1,1895,264.555) translate(0 16.555555555555557)"/><use xlink:href="#j" transform="matrix(1,0,0,1,1765,295.555) translate(8.728395061728392 16.555555555555557)"/><use xlink:href="#y" transform="matrix(1,0,0,1,1825,295.555) translate(0 15.666666666666668)"/><use xlink:href="#n" transform="matrix(1,0,0,1,1895,295.555) translate(0 16.555555555555557)"/><path d="M1101.5 246.5h234c0-2.76 2.24-5 5-5s5 2.24 5 5h84.5v.06h328.5" stroke="#000" stroke-width="2" fill="none"/><path d="M1101.53 247.5h-1.03v-2h1.03zM1759.5 247.56h-1.03v-2h1.03z"/><path d="M1780 700h200v165h-200z" fill="#ef8d22"/><path d="M1780 771h200v31h-200zM1780 834h200v31h-200z" fill="#d77f1f"/><path d="M1780 700h200v165h-200zM1780 740h200M1840 740v125M1910 740v125" stroke="#000" fill="none"/><use xlink:href="#z" transform="matrix(1,0,0,1,1790,700) translate(67.2462962962963 22.933333333333334)"/><use xlink:href="#b" transform="matrix(1,0,0,1,1785,742.5) translate(12.679012345679011 16.555555555555557)"/><use xlink:href="#c" transform="matrix(1,0,0,1,1845,742.5) translate(0 16.555555555555557)"/><use xlink:href="#d" transform="matrix(1,0,0,1,1915,742.5) translate(0 16.555555555555557)"/><use xlink:href="#j" transform="matrix(1,0,0,1,1785,773.5) translate(8.728395061728392 16.555555555555557)"/><use xlink:href="#A" transform="matrix(1,0,0,1,1845,773.5) translate(5.596296296296298 15.933333333333334)"/><use xlink:href="#n" transform="matrix(1,0,0,1,1915,773.5) translate(0 16.555555555555557)"/><use xlink:href="#B" transform="matrix(1,0,0,1,1785,804.5) translate(9.5 17.1)"/><use xlink:href="#C" transform="matrix(1,0,0,1,1845,804.5) translate(0 17.1)"/><use xlink:href="#D" transform="matrix(1,0,0,1,1915,804.5) translate(0 17.1)"/><use xlink:href="#j" transform="matrix(1,0,0,1,1785,836.5) translate(8.728395061728392 16.555555555555557)"/><use xlink:href="#E" transform="matrix(1,0,0,1,1845,836.5) translate(0 15.666666666666668)"/><use xlink:href="#n" transform="matrix(1,0,0,1,1915,836.5) translate(0 16.555555555555557)"/><path d="M1000 420.5v334.87h778.5" stroke="#000" stroke-width="2" fill="none"/><path d="M1001 420.53h-2v-1.03h2zM1779.5 756.37h-1.03v-2h1.03z"/><path d="M900 920h200v134H900z" fill="#ef8d22"/><path d="M900 991h200v32H900z" fill="#d77f1f"/><path d="M900 920h200v134H900zM900 960h200M960 960v94M1030 960v94" stroke="#000" fill="none"/><use xlink:href="#F" transform="matrix(1,0,0,1,910,920) translate(66.8388888888889 22.933333333333334)"/><use xlink:href="#b" transform="matrix(1,0,0,1,905,962.5) translate(12.679012345679011 16.555555555555557)"/><use xlink:href="#c" transform="matrix(1,0,0,1,965,962.5) translate(0 16.555555555555557)"/><use xlink:href="#d" transform="matrix(1,0,0,1,1035,962.5) translate(0 16.555555555555557)"/><use xlink:href="#g" transform="matrix(1,0,0,1,905,993.5) translate(13.049999999999999 17.1)"/><use xlink:href="#p" transform="matrix(1,0,0,1,965,993.5) translate(0 16.166666666666668)"/><use xlink:href="#i" transform="matrix(1,0,0,1,1035,993.5) translate(0 17.1)"/><use xlink:href="#j" transform="matrix(1,0,0,1,905,1025.5) translate(8.728395061728392 16.555555555555557)"/><use xlink:href="#k" transform="matrix(1,0,0,1,965,1025.5) translate(10.05740740740741 15.933333333333334)"/><use xlink:href="#n" transform="matrix(1,0,0,1,1035,1025.5) translate(0 16.555555555555557)"/><path d="M1101.5 1007.1H1670V755.36h108.5" stroke="#000" stroke-width="2" fill="none"/><path d="M1101.53 1008.1h-1.03v-2h1.03zM1779.5 756.37h-1.03v-2h1.03z"/><path d="M320 919.92h200v103H320z" fill="#75b2ff"/><path d="M320 990.92h200v32H320z" fill="#69a0e6"/><path d="M320 919.92h200v103H320zM320 959.92h200M380 959.92v63M450 959.92v63" stroke="#000" fill="none"/><use xlink:href="#G" transform="matrix(1,0,0,1,330,919.9225) translate(57.85555555555556 22.933333333333334)"/><use xlink:href="#e" transform="matrix(1,0,0,1,325,962.4225) translate(13.19753086419753 16.555555555555557)"/><use xlink:href="#H" transform="matrix(1,0,0,1,385,962.4225) translate(0 16.555555555555557)"/><use xlink:href="#d" transform="matrix(1,0,0,1,455,962.4225) translate(0 16.555555555555557)"/><use xlink:href="#g" transform="matrix(1,0,0,1,325,993.4225) translate(13.049999999999999 17.1)"/><use xlink:href="#I" transform="matrix(1,0,0,1,385,993.4225) translate(0 16.166666666666668)"/><use xlink:href="#i" transform="matrix(1,0,0,1,455,993.4225) translate(0 17.1)"/><path d="M898.5 975.44h-377" stroke="#000" stroke-width="2" fill="none"/><path d="M899.5 976.44h-1.03v-2h1.03zM521.53 976.44h-1.03v-2h1.03z"/><path d="M318.5 1007.1h-39V215.5h619" stroke="#000" stroke-width="2" fill="none"/><path d="M319.5 1008.1h-1.03v-2h1.03zM899.5 216.5h-1.03v-2h1.03z"/><path d="M900 1146h200v326H900z" fill="#ef8d22"/><path d="M900 1217h200v32H900zM900 1280h200v32H900zM900 1344h200v32H900zM900 1408h200v32H900z" fill="#d77f1f"/><path d="M900 1146h200v326H900zM900 1186h200M960 1186v286M1030 1186v286" stroke="#000" fill="none"/><use xlink:href="#J" transform="matrix(1,0,0,1,910,1146) translate(34.69444444444445 22.933333333333334)"/><use xlink:href="#K" transform="matrix(1,0,0,1,910,1146) translate(80.24259259259259 22.933333333333334)"/><use xlink:href="#b" transform="matrix(1,0,0,1,905,1188.5) translate(12.679012345679011 16.555555555555557)"/><use xlink:href="#c" transform="matrix(1,0,0,1,965,1188.5) translate(0 16.555555555555557)"/><use xlink:href="#d" transform="matrix(1,0,0,1,1035,1188.5) translate(0 16.555555555555557)"/><use xlink:href="#g" transform="matrix(1,0,0,1,905,1219.5) translate(13.049999999999999 17.1)"/><use xlink:href="#p" transform="matrix(1,0,0,1,965,1219.5) translate(0 16.166666666666668)"/><use xlink:href="#i" transform="matrix(1,0,0,1,1035,1219.5) translate(0 17.1)"/><use xlink:href="#j" transform="matrix(1,0,0,1,905,1251.5) translate(8.728395061728392 16.555555555555557)"/><use xlink:href="#L" transform="matrix(1,0,0,1,965,1251.5) translate(10.872222222222224 15.933333333333334)"/><use xlink:href="#l" transform="matrix(1,0,0,1,1035,1251.5) translate(0 16.555555555555557)"/><use xlink:href="#M" transform="matrix(1,0,0,1,905,1282.5) translate(8.524999999999999 17.1)"/><use xlink:href="#N" transform="matrix(1,0,0,1,965,1282.5) translate(0 16.166666666666668)"/><use xlink:href="#O" transform="matrix(1,0,0,1,1035,1282.5) translate(0 17.1)"/><use xlink:href="#M" transform="matrix(1,0,0,1,905,1314.5) translate(8.524999999999999 17.1)"/><use xlink:href="#P" transform="matrix(1,0,0,1,965,1314.5) translate(0 17.1)"/><use xlink:href="#O" transform="matrix(1,0,0,1,1035,1314.5) translate(0 17.1)"/><use xlink:href="#M" transform="matrix(1,0,0,1,905,1346.5) translate(8.524999999999999 17.1)"/><use xlink:href="#Q" transform="matrix(1,0,0,1,965,1346.5) translate(0 17.1)"/><use xlink:href="#O" transform="matrix(1,0,0,1,1035,1346.5) translate(0 17.1)"/><use xlink:href="#M" transform="matrix(1,0,0,1,905,1378.5) translate(8.524999999999999 17.1)"/><use xlink:href="#R" transform="matrix(1,0,0,1,965,1378.5) translate(0 16.166666666666668)"/><use xlink:href="#O" transform="matrix(1,0,0,1,1035,1378.5) translate(0 17.1)"/><use xlink:href="#M" transform="matrix(1,0,0,1,905,1410.5) translate(8.524999999999999 17.1)"/><use xlink:href="#S" transform="matrix(1,0,0,1,965,1410.5) translate(0 17.1)"/><use xlink:href="#O" transform="matrix(1,0,0,1,1035,1410.5) translate(0 17.1)"/><use xlink:href="#M" transform="matrix(1,0,0,1,905,1442.5) translate(8.524999999999999 17.1)"/><use xlink:href="#T" transform="matrix(1,0,0,1,965,1442.5) translate(0 16.61111111111111)"/><use xlink:href="#O" transform="matrix(1,0,0,1,1035,1442.5) translate(0 17.1)"/><path d="M1101.5 1233H1720V755.37h58.5" stroke="#000" stroke-width="2" fill="none"/><path d="M1101.53 1234h-1.03v-2h1.03zM1779.5 756.37h-1.03v-2h1.03z"/><path d="M899 277.94H664.5c0-2.76-2.24-5-5-5s-5 2.24-5 5h-370c0-2.76-2.24-5-5-5s-5 2.24-5 5H130v923.02h769" stroke="#000" fill="none"/><path d="M899.5 278.44h-.5v-1h.5zM899.5 1201.46h-.5v-1h.5z"/><path d="M1321.5 597.68h386.16V247.56" stroke="#000" stroke-width="2" fill="none"/><path d="M1321.53 598.68h-1.03v-2h1.03z"/><path d="M1707.66 247.58v-1.02M901.5 597.68h20V690H995c0-2.76 2.24-5 5-5s5 2.24 5 5h742.66V557.68h-40v39" stroke="#000" stroke-width="2" fill="none"/><path d="M901.53 598.68h-1.03v-2h1.03z"/><path d="M1707.66 596.65v1.03" stroke="#000" stroke-width="2" fill="none"/><defs><path d="M230 0l2-204L168 0h-37L68-204 70 0H24v-248h70l56 185 57-185h69V0h-46" id="U"/><path d="M110-194c64 0 96 36 96 99 0 64-35 99-97 99-61 0-95-36-95-99 0-62 34-99 96-99zm-1 164c35 0 45-28 45-65 0-40-10-65-43-65-34 0-45 26-45 65 0 36 10 65 43 65" id="V"/><path d="M128 0H69L1-190h53L99-40l48-150h52" id="W"/><path d="M25-224v-37h50v37H25zM25 0v-190h50V0H25" id="X"/><path d="M185-48c-13 30-37 53-82 52C43 2 14-33 14-96s30-98 90-98c62 0 83 45 84 108H66c0 31 8 55 39 56 18 0 30-7 34-22zm-45-69c5-46-57-63-70-21-2 6-4 13-4 21h74" id="Y"/><path d="M137-138c1-29-70-34-71-4 15 46 118 7 119 86 1 83-164 76-172 9l43-7c4 19 20 25 44 25 33 8 57-30 24-41C81-84 22-81 20-136c-2-80 154-74 161-7" id="Z"/><g id="a"><use transform="matrix(0.04074074074074074,0,0,0.04074074074074074,0,0)" xlink:href="#U"/><use transform="matrix(0.04074074074074074,0,0,0.04074074074074074,12.18148148148148,0)" xlink:href="#V"/><use transform="matrix(0.04074074074074074,0,0,0.04074074074074074,21.1037037037037,0)" xlink:href="#W"/><use transform="matrix(0.04074074074074074,0,0,0.04074074074074074,29.251851851851846,0)" xlink:href="#X"/><use transform="matrix(0.04074074074074074,0,0,0.04074074074074074,33.32592592592592,0)" xlink:href="#Y"/><use transform="matrix(0.04074074074074074,0,0,0.04074074074074074,41.47407407407407,0)" xlink:href="#Z"/></g><path d="M24-248c93 1 206-16 204 79-1 75-69 88-152 82V0H24v-248zm52 121c47 0 100 7 100-41 0-47-54-39-100-39v80" id="aa"/><path d="M195 0l-88-114-31 24V0H24v-248h52v113l112-113h60L142-143 257 0h-62" id="ab"/><g id="b"><use transform="matrix(0.04938271604938272,0,0,0.04938271604938272,0,0)" xlink:href="#aa"/><use transform="matrix(0.04938271604938272,0,0,0.04938271604938272,11.851851851851853,0)" xlink:href="#ab"/><path d="M-.9.95h26.43v1.87H-.9z"/></g><path d="M24 0v-248h52V0H24" id="ac"/><path d="M24-248c120-7 223 5 221 122C244-46 201 0 124 0H24v-248zM76-40c74 7 117-18 117-86 0-67-45-88-117-82v168" id="ad"/><g id="c"><use transform="matrix(0.04938271604938272,0,0,0.04938271604938272,0,0)" xlink:href="#ac"/><use transform="matrix(0.04938271604938272,0,0,0.04938271604938272,4.938271604938272,0)" xlink:href="#ad"/><path d="M-.9.95h19.52v1.87H-.88z"/></g><path d="M135-194c87-1 58 113 63 194h-50c-7-57 23-157-34-157-59 0-34 97-39 157H25l-1-190h47c2 12-1 28 3 38 12-26 28-41 61-42" id="ae"/><path d="M115-3C79 11 28 4 28-45v-112H4v-33h27l15-45h31v45h36v33H77v99c-1 23 16 31 38 25v30" id="af"/><path d="M195-6C206 82 75 100 31 46c-4-6-6-13-8-21l49-6c3 16 16 24 34 25 40 0 42-37 40-79-11 22-30 35-61 35-53 0-70-43-70-97 0-56 18-96 73-97 30 0 46 14 59 34l2-30h47zm-90-29c32 0 41-27 41-63 0-35-9-62-40-62-32 0-39 29-40 63 0 36 9 62 39 62" id="ag"/><path d="M135-150c-39-12-60 13-60 57V0H25l-1-190h47c2 13-1 29 3 40 6-28 27-53 61-41v41" id="ah"/><g id="d"><use transform="matrix(0.04938271604938272,0,0,0.04938271604938272,0,0)" xlink:href="#ac"/><use transform="matrix(0.04938271604938272,0,0,0.04938271604938272,4.938271604938272,0)" xlink:href="#ae"/><use transform="matrix(0.04938271604938272,0,0,0.04938271604938272,15.753086419753087,0)" xlink:href="#af"/><use transform="matrix(0.04938271604938272,0,0,0.04938271604938272,21.62962962962963,0)" xlink:href="#Y"/><use transform="matrix(0.04938271604938272,0,0,0.04938271604938272,31.506172839506174,0)" xlink:href="#ag"/><use transform="matrix(0.04938271604938272,0,0,0.04938271604938272,42.32098765432099,0)" xlink:href="#Y"/><use transform="matrix(0.04938271604938272,0,0,0.04938271604938272,52.19753086419754,0)" xlink:href="#ah"/><path d="M-.9.95H60v1.87H-.9z"/></g><path d="M76-208v77h127v40H76V0H24v-248h183v40H76" id="ai"/><g id="e"><use transform="matrix(0.04938271604938272,0,0,0.04938271604938272,0,0)" xlink:href="#ai"/><use transform="matrix(0.04938271604938272,0,0,0.04938271604938272,10.814814814814815,0)" xlink:href="#ab"/><path d="M-.9.95h25.4v1.87H-.9z"/></g><path d="M238-95c0 69-44 99-111 99C63 4 22-25 22-93v-155h51v151c-1 38 19 59 55 60 90 1 49-130 58-211h52v153" id="aj"/><g id="f"><use transform="matrix(0.04938271604938272,0,0,0.04938271604938272,0,0)" xlink:href="#aj"/><use transform="matrix(0.04938271604938272,0,0,0.04938271604938272,12.790123456790125,0)" xlink:href="#Z"/><use transform="matrix(0.04938271604938272,0,0,0.04938271604938272,22.66666666666667,0)" xlink:href="#Y"/><use transform="matrix(0.04938271604938272,0,0,0.04938271604938272,32.543209876543216,0)" xlink:href="#ah"/><use transform="matrix(0.04938271604938272,0,0,0.04938271604938272,39.4567901234568,0)" xlink:href="#ac"/><use transform="matrix(0.04938271604938272,0,0,0.04938271604938272,44.39506172839507,0)" xlink:href="#ad"/></g><g id="g"><use transform="matrix(0.05,0,0,0.05,0,0)" xlink:href="#ai"/><use transform="matrix(0.05,0,0,0.05,10.950000000000001,0)" xlink:href="#ab"/><path d="M-.9.97h25.7v1.9H-.9z"/></g><path d="M169-182c-1-43-94-46-97-3 18 66 151 10 154 114 3 95-165 93-204 36-6-8-10-19-12-30l50-8c3 46 112 56 116 5-17-69-150-10-154-114-4-87 153-88 188-35 5 8 8 18 10 28" id="ak"/><path d="M133-34C117-15 103 5 69 4 32 3 11-16 11-54c-1-60 55-63 116-61 1-26-3-47-28-47-18 1-26 9-28 27l-52-2c7-38 36-58 82-57s74 22 75 68l1 82c-1 14 12 18 25 15v27c-30 8-71 5-69-32zm-48 3c29 0 43-24 42-57-32 0-66-3-65 30 0 17 8 27 23 27" id="al"/><g id="h"><use transform="matrix(0.05,0,0,0.05,0,0)" xlink:href="#ak"/><use transform="matrix(0.05,0,0,0.05,12,0)" xlink:href="#af"/><use transform="matrix(0.05,0,0,0.05,17.95,0)" xlink:href="#al"/><use transform="matrix(0.05,0,0,0.05,27.950000000000003,0)" xlink:href="#af"/><use transform="matrix(0.05,0,0,0.05,33.9,0)" xlink:href="#Z"/><use transform="matrix(0.05,0,0,0.05,43.9,0)" xlink:href="#ac"/><use transform="matrix(0.05,0,0,0.05,48.9,0)" xlink:href="#ad"/></g><g id="i"><use transform="matrix(0.05,0,0,0.05,0,0)" xlink:href="#ac"/><use transform="matrix(0.05,0,0,0.05,5,0)" xlink:href="#ae"/><use transform="matrix(0.05,0,0,0.05,15.950000000000001,0)" xlink:href="#af"/><use transform="matrix(0.05,0,0,0.05,21.900000000000002,0)" xlink:href="#Y"/><use transform="matrix(0.05,0,0,0.05,31.900000000000002,0)" xlink:href="#ag"/><use transform="matrix(0.05,0,0,0.05,42.85,0)" xlink:href="#Y"/><use transform="matrix(0.05,0,0,0.05,52.85,0)" xlink:href="#ah"/><path d="M-.9.97h61.65v1.9H-.9z"/></g><path d="M123 10C108 53 80 86 19 72V37c35 8 53-11 59-39L3-190h52l48 148c12-52 28-100 44-148h51" id="am"/><g id="j"><use transform="matrix(0.04938271604938272,0,0,0.04938271604938272,0,0)" xlink:href="#ab"/><use transform="matrix(0.04938271604938272,0,0,0.04938271604938272,12.790123456790125,0)" xlink:href="#Y"/><use transform="matrix(0.04938271604938272,0,0,0.04938271604938272,22.66666666666667,0)" xlink:href="#am"/></g><path d="M175 0L67-191c6 58 2 128 3 191H24v-248h59L193-55c-6-58-2-129-3-193h46V0h-61" id="an"/><path d="M220-157c-53 9-28 100-34 157h-49v-107c1-27-5-49-29-50C55-147 81-57 75 0H25l-1-190h47c2 12-1 28 3 38 10-53 101-56 108 0 13-22 24-43 59-42 82 1 51 116 57 194h-49v-107c-1-25-5-48-29-50" id="ao"/><g id="k"><use transform="matrix(0.04074074074074074,0,0,0.04074074074074074,0,0)" xlink:href="#an"/><use transform="matrix(0.04074074074074074,0,0,0.04074074074074074,10.55185185185185,0)" xlink:href="#al"/><use transform="matrix(0.04074074074074074,0,0,0.04074074074074074,18.699999999999996,0)" xlink:href="#ao"/><use transform="matrix(0.04074074074074074,0,0,0.04074074074074074,31.737037037037034,0)" xlink:href="#Y"/></g><g id="l"><use transform="matrix(0.04938271604938272,0,0,0.04938271604938272,0,0)" xlink:href="#ac"/><use transform="matrix(0.04938271604938272,0,0,0.04938271604938272,4.938271604938272,0)" xlink:href="#ae"/><use transform="matrix(0.04938271604938272,0,0,0.04938271604938272,15.753086419753087,0)" xlink:href="#af"/><use transform="matrix(0.04938271604938272,0,0,0.04938271604938272,21.62962962962963,0)" xlink:href="#Y"/><use transform="matrix(0.04938271604938272,0,0,0.04938271604938272,31.506172839506174,0)" xlink:href="#ag"/><use transform="matrix(0.04938271604938272,0,0,0.04938271604938272,42.32098765432099,0)" xlink:href="#Y"/><use transform="matrix(0.04938271604938272,0,0,0.04938271604938272,52.19753086419754,0)" xlink:href="#ah"/></g><path d="M67-125c0 54 23 88 75 88 28 0 53-7 68-21v-34h-60v-39h108v91C232-14 192 4 140 4 58 4 20-42 15-125 8-236 126-280 215-234c19 10 29 26 37 47l-47 15c-11-23-29-39-63-39-53 1-75 33-75 86" id="ap"/><g id="m"><use transform="matrix(0.04938271604938272,0,0,0.04938271604938272,0,0)" xlink:href="#ap"/><use transform="matrix(0.04938271604938272,0,0,0.04938271604938272,13.827160493827162,0)" xlink:href="#Y"/><use transform="matrix(0.04938271604938272,0,0,0.04938271604938272,23.703703703703706,0)" xlink:href="#ae"/><use transform="matrix(0.04938271604938272,0,0,0.04938271604938272,34.51851851851852,0)" xlink:href="#ah"/><use transform="matrix(0.04938271604938272,0,0,0.04938271604938272,41.4320987654321,0)" xlink:href="#Y"/></g><path d="M147 0H94L2-248h55l64 206c17-72 42-137 63-206h54" id="aq"/><path d="M190-63c-7 42-38 67-86 67-59 0-84-38-90-98-12-110 154-137 174-36l-49 2c-2-19-15-32-35-32-30 0-35 28-38 64-6 74 65 87 74 30" id="ar"/><path d="M114-157C55-157 80-60 75 0H25v-261h50l-1 109c12-26 28-41 61-42 86-1 58 113 63 194h-50c-7-57 23-157-34-157" id="as"/><g id="n"><use transform="matrix(0.04938271604938272,0,0,0.04938271604938272,0,0)" xlink:href="#aq"/><use transform="matrix(0.04938271604938272,0,0,0.04938271604938272,10.864197530864198,0)" xlink:href="#al"/><use transform="matrix(0.04938271604938272,0,0,0.04938271604938272,20.74074074074074,0)" xlink:href="#ah"/><use transform="matrix(0.04938271604938272,0,0,0.04938271604938272,27.654320987654323,0)" xlink:href="#ar"/><use transform="matrix(0.04938271604938272,0,0,0.04938271604938272,37.53086419753087,0)" xlink:href="#as"/><use transform="matrix(0.04938271604938272,0,0,0.04938271604938272,48.345679012345684,0)" xlink:href="#al"/><use transform="matrix(0.04938271604938272,0,0,0.04938271604938272,58.22222222222223,0)" xlink:href="#ah"/></g><path d="M240-174c0 40-23 61-54 70L253 0h-59l-57-94H76V0H24v-248c93 4 217-23 216 74zM76-134c48-2 112 12 112-38 0-48-66-32-112-35v73" id="at"/><g id="o"><use transform="matrix(0.04938271604938272,0,0,0.04938271604938272,0,0)" xlink:href="#at"/><use transform="matrix(0.04938271604938272,0,0,0.04938271604938272,12.790123456790125,0)" xlink:href="#al"/><use transform="matrix(0.04938271604938272,0,0,0.04938271604938272,22.66666666666667,0)" xlink:href="#af"/><use transform="matrix(0.04938271604938272,0,0,0.04938271604938272,28.54320987654322,0)" xlink:href="#X"/><use transform="matrix(0.04938271604938272,0,0,0.04938271604938272,33.48148148148149,0)" xlink:href="#ae"/><use transform="matrix(0.04938271604938272,0,0,0.04938271604938272,44.296296296296305,0)" xlink:href="#ag"/></g><path d="M199 0l-22-63H83L61 0H9l90-248h61L250 0h-51zm-33-102l-36-108c-10 38-24 72-36 108h72" id="au"/><path d="M88-194c31-1 46 15 58 34l-1-101h50l1 261h-48c-2-10 0-23-3-31C134-8 116 4 84 4 32 4 16-41 15-95c0-56 19-97 73-99zm17 164c33 0 40-30 41-66 1-37-9-64-41-64s-38 30-39 65c0 43 13 65 39 65" id="av"/><g id="p"><use transform="matrix(0.03703703703703704,0,0,0.03703703703703704,0,0)" xlink:href="#au"/><use transform="matrix(0.03703703703703704,0,0,0.03703703703703704,9.592592592592593,0)" xlink:href="#av"/><use transform="matrix(0.03703703703703704,0,0,0.03703703703703704,17.703703703703706,0)" xlink:href="#ao"/><use transform="matrix(0.03703703703703704,0,0,0.03703703703703704,29.555555555555554,0)" xlink:href="#X"/><use transform="matrix(0.03703703703703704,0,0,0.03703703703703704,33.25925925925926,0)" xlink:href="#ae"/><use transform="matrix(0.03703703703703704,0,0,0.03703703703703704,41.370370370370374,0)" xlink:href="#ac"/><use transform="matrix(0.03703703703703704,0,0,0.03703703703703704,45.07407407407408,0)" xlink:href="#ad"/><path d="M-.67.72h56v1.4h-56z"/></g><g id="q"><use transform="matrix(0.04074074074074074,0,0,0.04074074074074074,0,0)" xlink:href="#aj"/><use transform="matrix(0.04074074074074074,0,0,0.04074074074074074,10.55185185185185,0)" xlink:href="#Z"/><use transform="matrix(0.04074074074074074,0,0,0.04074074074074074,18.699999999999996,0)" xlink:href="#Y"/><use transform="matrix(0.04074074074074074,0,0,0.04074074074074074,26.84814814814814,0)" xlink:href="#ah"/></g><g id="r"><use transform="matrix(0.04074074074074074,0,0,0.04074074074074074,0,0)" xlink:href="#at"/><use transform="matrix(0.04074074074074074,0,0,0.04074074074074074,10.55185185185185,0)" xlink:href="#al"/><use transform="matrix(0.04074074074074074,0,0,0.04074074074074074,18.699999999999996,0)" xlink:href="#af"/><use transform="matrix(0.04074074074074074,0,0,0.04074074074074074,23.548148148148147,0)" xlink:href="#X"/><use transform="matrix(0.04074074074074074,0,0,0.04074074074074074,27.622222222222216,0)" xlink:href="#ae"/><use transform="matrix(0.04074074074074074,0,0,0.04074074074074074,36.54444444444444,0)" xlink:href="#ag"/></g><g id="s"><use transform="matrix(0.04938271604938272,0,0,0.04938271604938272,0,0)" xlink:href="#ac"/><use transform="matrix(0.04938271604938272,0,0,0.04938271604938272,4.938271604938272,0)" xlink:href="#ad"/></g><g id="t"><use transform="matrix(0.04074074074074074,0,0,0.04074074074074074,0,0)" xlink:href="#U"/><use transform="matrix(0.04074074074074074,0,0,0.04074074074074074,12.18148148148148,0)" xlink:href="#V"/><use transform="matrix(0.04074074074074074,0,0,0.04074074074074074,21.1037037037037,0)" xlink:href="#W"/><use transform="matrix(0.04074074074074074,0,0,0.04074074074074074,29.251851851851846,0)" xlink:href="#X"/><use transform="matrix(0.04074074074074074,0,0,0.04074074074074074,33.32592592592592,0)" xlink:href="#Y"/><use transform="matrix(0.04074074074074074,0,0,0.04074074074074074,41.47407407407407,0)" xlink:href="#ac"/><use transform="matrix(0.04074074074074074,0,0,0.04074074074074074,45.548148148148144,0)" xlink:href="#ad"/></g><g id="u"><use transform="matrix(0.04938271604938272,0,0,0.04938271604938272,0,0)" xlink:href="#ab"/><use transform="matrix(0.04938271604938272,0,0,0.04938271604938272,12.790123456790125,0)" xlink:href="#Y"/><use transform="matrix(0.04938271604938272,0,0,0.04938271604938272,22.66666666666667,0)" xlink:href="#am"/><path d="M-.9.95h34.33v1.87H-.9z"/></g><path d="M231 0h-52l-39-155L100 0H48L-1-190h46L77-45c9-52 24-97 36-145h53l37 145 32-145h46" id="aw"/><g id="v"><use transform="matrix(0.04074074074074074,0,0,0.04074074074074074,0,0)" xlink:href="#at"/><use transform="matrix(0.04074074074074074,0,0,0.04074074074074074,10.55185185185185,0)" xlink:href="#Y"/><use transform="matrix(0.04074074074074074,0,0,0.04074074074074074,18.699999999999996,0)" xlink:href="#W"/><use transform="matrix(0.04074074074074074,0,0,0.04074074074074074,26.84814814814814,0)" xlink:href="#X"/><use transform="matrix(0.04074074074074074,0,0,0.04074074074074074,30.922222222222214,0)" xlink:href="#Y"/><use transform="matrix(0.04074074074074074,0,0,0.04074074074074074,39.07037037037036,0)" xlink:href="#aw"/></g><g id="w"><use transform="matrix(0.04938271604938272,0,0,0.04938271604938272,0,0)" xlink:href="#at"/><use transform="matrix(0.04938271604938272,0,0,0.04938271604938272,12.790123456790125,0)" xlink:href="#Y"/><use transform="matrix(0.04938271604938272,0,0,0.04938271604938272,22.66666666666667,0)" xlink:href="#W"/><use transform="matrix(0.04938271604938272,0,0,0.04938271604938272,32.543209876543216,0)" xlink:href="#X"/><use transform="matrix(0.04938271604938272,0,0,0.04938271604938272,37.48148148148149,0)" xlink:href="#Y"/><use transform="matrix(0.04938271604938272,0,0,0.04938271604938272,47.35802469135803,0)" xlink:href="#aw"/></g><g id="x"><use transform="matrix(0.04074074074074074,0,0,0.04074074074074074,0,0)" xlink:href="#aj"/><use transform="matrix(0.04074074074074074,0,0,0.04074074074074074,10.55185185185185,0)" xlink:href="#Z"/><use transform="matrix(0.04074074074074074,0,0,0.04074074074074074,18.699999999999996,0)" xlink:href="#Y"/><use transform="matrix(0.04074074074074074,0,0,0.04074074074074074,26.84814814814814,0)" xlink:href="#ah"/><use transform="matrix(0.04074074074074074,0,0,0.04074074074074074,32.55185185185184,0)" xlink:href="#Z"/><path d="M-.73.8h42.17v1.53H-.73z"/></g><g id="y"><use transform="matrix(0.03703703703703704,0,0,0.03703703703703704,0,0)" xlink:href="#aa"/><use transform="matrix(0.03703703703703704,0,0,0.03703703703703704,8.88888888888889,0)" xlink:href="#al"/><use transform="matrix(0.03703703703703704,0,0,0.03703703703703704,16.296296296296298,0)" xlink:href="#Z"/><use transform="matrix(0.03703703703703704,0,0,0.03703703703703704,23.703703703703706,0)" xlink:href="#Z"/><use transform="matrix(0.03703703703703704,0,0,0.03703703703703704,31.111111111111114,0)" xlink:href="#aw"/><use transform="matrix(0.03703703703703704,0,0,0.03703703703703704,41.48148148148149,0)" xlink:href="#V"/><use transform="matrix(0.03703703703703704,0,0,0.03703703703703704,49.5925925925926,0)" xlink:href="#ah"/><use transform="matrix(0.03703703703703704,0,0,0.03703703703703704,54.777777777777786,0)" xlink:href="#av"/></g><g id="z"><use transform="matrix(0.04074074074074074,0,0,0.04074074074074074,0,0)" xlink:href="#au"/><use transform="matrix(0.04074074074074074,0,0,0.04074074074074074,10.55185185185185,0)" xlink:href="#av"/><use transform="matrix(0.04074074074074074,0,0,0.04074074074074074,19.47407407407407,0)" xlink:href="#ao"/><use transform="matrix(0.04074074074074074,0,0,0.04074074074074074,32.511111111111106,0)" xlink:href="#X"/><use transform="matrix(0.04074074074074074,0,0,0.04074074074074074,36.58518518518518,0)" xlink:href="#ae"/></g><g id="A"><use transform="matrix(0.04074074074074074,0,0,0.04074074074074074,0,0)" xlink:href="#ai"/><use transform="matrix(0.04074074074074074,0,0,0.04074074074074074,8.92222222222222,0)" xlink:href="#an"/><use transform="matrix(0.04074074074074074,0,0,0.04074074074074074,19.47407407407407,0)" xlink:href="#al"/><use transform="matrix(0.04074074074074074,0,0,0.04074074074074074,27.62222222222222,0)" xlink:href="#ao"/><use transform="matrix(0.04074074074074074,0,0,0.04074074074074074,40.65925925925926,0)" xlink:href="#Y"/></g><path d="M194 0L95-120 63-95V0H30v-248h33v124l119-124h40L117-140 236 0h-42" id="ax"/><path d="M100-194c63 0 86 42 84 106H49c0 40 14 67 53 68 26 1 43-12 49-29l28 8c-11 28-37 45-77 45C44 4 14-33 15-96c1-61 26-98 85-98zm52 81c6-60-76-77-97-28-3 7-6 17-6 28h103" id="ay"/><path d="M179-190L93 31C79 59 56 82 12 73V49c39 6 53-20 64-50L1-190h34L92-34l54-156h33" id="az"/><g id="B"><use transform="matrix(0.05,0,0,0.05,0,0)" xlink:href="#ax"/><use transform="matrix(0.05,0,0,0.05,12,0)" xlink:href="#ay"/><use transform="matrix(0.05,0,0,0.05,22,0)" xlink:href="#az"/></g><path d="M24 0v-248h52v208h133V0H24" id="aA"/><g id="C"><use transform="matrix(0.05,0,0,0.05,0,0)" xlink:href="#aA"/><use transform="matrix(0.05,0,0,0.05,10.950000000000001,0)" xlink:href="#an"/><use transform="matrix(0.05,0,0,0.05,23.900000000000002,0)" xlink:href="#al"/><use transform="matrix(0.05,0,0,0.05,33.900000000000006,0)" xlink:href="#ao"/><use transform="matrix(0.05,0,0,0.05,49.900000000000006,0)" xlink:href="#Y"/></g><g id="D"><use transform="matrix(0.05,0,0,0.05,0,0)" xlink:href="#aq"/><use transform="matrix(0.05,0,0,0.05,11,0)" xlink:href="#al"/><use transform="matrix(0.05,0,0,0.05,21,0)" xlink:href="#ah"/><use transform="matrix(0.05,0,0,0.05,28,0)" xlink:href="#ar"/><use transform="matrix(0.05,0,0,0.05,38,0)" xlink:href="#as"/><use transform="matrix(0.05,0,0,0.05,48.95,0)" xlink:href="#al"/><use transform="matrix(0.05,0,0,0.05,58.95,0)" xlink:href="#ah"/></g><g id="E"><use transform="matrix(0.03703703703703704,0,0,0.03703703703703704,0,0)" xlink:href="#aa"/><use transform="matrix(0.03703703703703704,0,0,0.03703703703703704,8.88888888888889,0)" xlink:href="#al"/><use transform="matrix(0.03703703703703704,0,0,0.03703703703703704,16.296296296296298,0)" xlink:href="#Z"/><use transform="matrix(0.03703703703703704,0,0,0.03703703703703704,23.703703703703706,0)" xlink:href="#Z"/><use transform="matrix(0.03703703703703704,0,0,0.03703703703703704,31.111111111111114,0)" xlink:href="#aw"/><use transform="matrix(0.03703703703703704,0,0,0.03703703703703704,41.48148148148149,0)" xlink:href="#V"/><use transform="matrix(0.03703703703703704,0,0,0.03703703703703704,49.5925925925926,0)" xlink:href="#ah"/><use transform="matrix(0.03703703703703704,0,0,0.03703703703703704,54.777777777777786,0)" xlink:href="#av"/></g><g id="F"><use transform="matrix(0.04074074074074074,0,0,0.04074074074074074,0,0)" xlink:href="#au"/><use transform="matrix(0.04074074074074074,0,0,0.04074074074074074,10.55185185185185,0)" xlink:href="#ar"/><use transform="matrix(0.04074074074074074,0,0,0.04074074074074074,18.699999999999996,0)" xlink:href="#af"/><use transform="matrix(0.04074074074074074,0,0,0.04074074074074074,23.548148148148147,0)" xlink:href="#V"/><use transform="matrix(0.04074074074074074,0,0,0.04074074074074074,32.47037037037036,0)" xlink:href="#ah"/><use transform="matrix(0.04074074074074074,0,0,0.04074074074074074,38.17407407407406,0)" xlink:href="#Z"/></g><path d="M121-226c-27-7-43 5-38 36h38v33H83V0H34v-157H6v-33h28c-9-59 32-81 87-68v32" id="aB"/><g id="G"><use transform="matrix(0.04074074074074074,0,0,0.04074074074074074,0,0)" xlink:href="#aa"/><use transform="matrix(0.04074074074074074,0,0,0.04074074074074074,9.777777777777777,0)" xlink:href="#Y"/><use transform="matrix(0.04074074074074074,0,0,0.04074074074074074,17.925925925925924,0)" xlink:href="#ah"/><use transform="matrix(0.04074074074074074,0,0,0.04074074074074074,23.629629629629626,0)" xlink:href="#aB"/><use transform="matrix(0.04074074074074074,0,0,0.04074074074074074,28.477777777777774,0)" xlink:href="#V"/><use transform="matrix(0.04074074074074074,0,0,0.04074074074074074,37.39999999999999,0)" xlink:href="#ah"/><use transform="matrix(0.04074074074074074,0,0,0.04074074074074074,43.103703703703694,0)" xlink:href="#ao"/><use transform="matrix(0.04074074074074074,0,0,0.04074074074074074,56.14074074074074,0)" xlink:href="#Z"/></g><g id="H"><use transform="matrix(0.04938271604938272,0,0,0.04938271604938272,0,0)" xlink:href="#au"/><use transform="matrix(0.04938271604938272,0,0,0.04938271604938272,12.790123456790125,0)" xlink:href="#ar"/><use transform="matrix(0.04938271604938272,0,0,0.04938271604938272,22.66666666666667,0)" xlink:href="#af"/><use transform="matrix(0.04938271604938272,0,0,0.04938271604938272,28.54320987654322,0)" xlink:href="#V"/><use transform="matrix(0.04938271604938272,0,0,0.04938271604938272,39.35802469135803,0)" xlink:href="#ah"/><use transform="matrix(0.04938271604938272,0,0,0.04938271604938272,46.271604938271615,0)" xlink:href="#ac"/><use transform="matrix(0.04938271604938272,0,0,0.04938271604938272,51.209876543209894,0)" xlink:href="#ad"/><path d="M-.9.95h65.8v1.87H-.9z"/></g><g id="I"><use transform="matrix(0.03703703703703704,0,0,0.03703703703703704,0,0)" xlink:href="#U"/><use transform="matrix(0.03703703703703704,0,0,0.03703703703703704,11.074074074074076,0)" xlink:href="#V"/><use transform="matrix(0.03703703703703704,0,0,0.03703703703703704,19.18518518518519,0)" xlink:href="#W"/><use transform="matrix(0.03703703703703704,0,0,0.03703703703703704,26.5925925925926,0)" xlink:href="#X"/><use transform="matrix(0.03703703703703704,0,0,0.03703703703703704,30.296296296296305,0)" xlink:href="#Y"/><use transform="matrix(0.03703703703703704,0,0,0.03703703703703704,37.70370370370371,0)" xlink:href="#ac"/><use transform="matrix(0.03703703703703704,0,0,0.03703703703703704,41.40740740740741,0)" xlink:href="#ad"/><path d="M-.67.72h52.33v1.4H-.67z"/></g><g id="J"><use transform="matrix(0.04074074074074074,0,0,0.04074074074074074,0,0)" xlink:href="#U"/><use transform="matrix(0.04074074074074074,0,0,0.04074074074074074,12.18148148148148,0)" xlink:href="#V"/><use transform="matrix(0.04074074074074074,0,0,0.04074074074074074,21.1037037037037,0)" xlink:href="#W"/><use transform="matrix(0.04074074074074074,0,0,0.04074074074074074,29.251851851851846,0)" xlink:href="#X"/><use transform="matrix(0.04074074074074074,0,0,0.04074074074074074,33.32592592592592,0)" xlink:href="#Y"/></g><g id="K"><use transform="matrix(0.04074074074074074,0,0,0.04074074074074074,0,0)" xlink:href="#ak"/><use transform="matrix(0.04074074074074074,0,0,0.04074074074074074,9.777777777777777,0)" xlink:href="#af"/><use transform="matrix(0.04074074074074074,0,0,0.04074074074074074,14.625925925925925,0)" xlink:href="#al"/><use transform="matrix(0.04074074074074074,0,0,0.04074074074074074,22.774074074074072,0)" xlink:href="#af"/><use transform="matrix(0.04074074074074074,0,0,0.04074074074074074,27.62222222222222,0)" xlink:href="#X"/><use transform="matrix(0.04074074074074074,0,0,0.04074074074074074,31.696296296296293,0)" xlink:href="#Z"/><use transform="matrix(0.04074074074074074,0,0,0.04074074074074074,39.84444444444444,0)" xlink:href="#af"/><use transform="matrix(0.04074074074074074,0,0,0.04074074074074074,44.69259259259259,0)" xlink:href="#X"/><use transform="matrix(0.04074074074074074,0,0,0.04074074074074074,48.766666666666666,0)" xlink:href="#ar"/><use transform="matrix(0.04074074074074074,0,0,0.04074074074074074,56.91481481481481,0)" xlink:href="#Z"/></g><g id="L"><use transform="matrix(0.04074074074074074,0,0,0.04074074074074074,0,0)" xlink:href="#ap"/><use transform="matrix(0.04074074074074074,0,0,0.04074074074074074,11.407407407407407,0)" xlink:href="#ah"/><use transform="matrix(0.04074074074074074,0,0,0.04074074074074074,17.11111111111111,0)" xlink:href="#Y"/><use transform="matrix(0.04074074074074074,0,0,0.04074074074074074,25.259259259259263,0)" xlink:href="#al"/><use transform="matrix(0.04074074074074074,0,0,0.04074074074074074,33.407407407407405,0)" xlink:href="#af"/></g><g id="M"><use transform="matrix(0.05,0,0,0.05,0,0)" xlink:href="#ab"/><use transform="matrix(0.05,0,0,0.05,12.950000000000001,0)" xlink:href="#Y"/><use transform="matrix(0.05,0,0,0.05,22.950000000000003,0)" xlink:href="#am"/></g><g id="N"><use transform="matrix(0.03703703703703704,0,0,0.03703703703703704,0,0)" xlink:href="#U"/><use transform="matrix(0.03703703703703704,0,0,0.03703703703703704,11.074074074074076,0)" xlink:href="#Y"/><use transform="matrix(0.03703703703703704,0,0,0.03703703703703704,18.481481481481485,0)" xlink:href="#av"/><use transform="matrix(0.03703703703703704,0,0,0.03703703703703704,26.592592592592595,0)" xlink:href="#X"/><use transform="matrix(0.03703703703703704,0,0,0.03703703703703704,30.296296296296298,0)" xlink:href="#V"/><use transform="matrix(0.03703703703703704,0,0,0.03703703703703704,38.40740740740741,0)" xlink:href="#ar"/><use transform="matrix(0.03703703703703704,0,0,0.03703703703703704,45.814814814814824,0)" xlink:href="#ah"/><use transform="matrix(0.03703703703703704,0,0,0.03703703703703704,51.00000000000001,0)" xlink:href="#Y"/></g><g id="O"><use transform="matrix(0.05,0,0,0.05,0,0)" xlink:href="#ac"/><use transform="matrix(0.05,0,0,0.05,5,0)" xlink:href="#ae"/><use transform="matrix(0.05,0,0,0.05,15.950000000000001,0)" xlink:href="#af"/><use transform="matrix(0.05,0,0,0.05,21.900000000000002,0)" xlink:href="#Y"/><use transform="matrix(0.05,0,0,0.05,31.900000000000002,0)" xlink:href="#ag"/><use transform="matrix(0.05,0,0,0.05,42.85,0)" xlink:href="#Y"/><use transform="matrix(0.05,0,0,0.05,52.85,0)" xlink:href="#ah"/></g><path d="M182-130c37 4 62 22 62 59C244 23 116-4 24 0v-248c84 5 203-23 205 63 0 31-19 50-47 55zM76-148c40-3 101 13 101-30 0-44-60-28-101-31v61zm0 110c48-3 116 14 116-37 0-48-69-32-116-35v72" id="aC"/><g id="P"><use transform="matrix(0.05,0,0,0.05,0,0)" xlink:href="#aC"/><use transform="matrix(0.05,0,0,0.05,12.950000000000001,0)" xlink:href="#al"/><use transform="matrix(0.05,0,0,0.05,22.950000000000003,0)" xlink:href="#av"/></g><g id="Q"><use transform="matrix(0.05,0,0,0.05,0,0)" xlink:href="#au"/><use transform="matrix(0.05,0,0,0.05,12.950000000000001,0)" xlink:href="#ar"/><use transform="matrix(0.05,0,0,0.05,22.950000000000003,0)" xlink:href="#af"/><use transform="matrix(0.05,0,0,0.05,28.900000000000002,0)" xlink:href="#X"/><use transform="matrix(0.05,0,0,0.05,33.900000000000006,0)" xlink:href="#V"/><use transform="matrix(0.05,0,0,0.05,44.85000000000001,0)" xlink:href="#ae"/></g><path d="M67-125c0 53 21 87 73 88 37 1 54-22 65-47l45 17C233-25 199 4 140 4 58 4 20-42 15-125 8-235 124-281 211-232c18 10 29 29 36 50l-46 12c-8-25-30-41-62-41-52 0-71 34-72 86" id="aD"/><g id="R"><use transform="matrix(0.03703703703703704,0,0,0.03703703703703704,0,0)" xlink:href="#aD"/><use transform="matrix(0.03703703703703704,0,0,0.03703703703703704,9.592592592592593,0)" xlink:href="#V"/><use transform="matrix(0.03703703703703704,0,0,0.03703703703703704,17.703703703703706,0)" xlink:href="#ao"/><use transform="matrix(0.03703703703703704,0,0,0.03703703703703704,29.555555555555554,0)" xlink:href="#Y"/><use transform="matrix(0.03703703703703704,0,0,0.03703703703703704,36.96296296296296,0)" xlink:href="#av"/><use transform="matrix(0.03703703703703704,0,0,0.03703703703703704,45.07407407407408,0)" xlink:href="#am"/></g><g id="S"><use transform="matrix(0.05,0,0,0.05,0,0)" xlink:href="#ad"/><use transform="matrix(0.05,0,0,0.05,12.950000000000001,0)" xlink:href="#ah"/><use transform="matrix(0.05,0,0,0.05,19.950000000000003,0)" xlink:href="#al"/><use transform="matrix(0.05,0,0,0.05,29.950000000000003,0)" xlink:href="#ao"/><use transform="matrix(0.05,0,0,0.05,45.95,0)" xlink:href="#al"/></g><g id="T"><use transform="matrix(0.04320987654320988,0,0,0.04320987654320988,0,0)" xlink:href="#ai"/><use transform="matrix(0.04320987654320988,0,0,0.04320987654320988,9.462962962962964,0)" xlink:href="#al"/><use transform="matrix(0.04320987654320988,0,0,0.04320987654320988,18.10493827160494,0)" xlink:href="#ae"/><use transform="matrix(0.04320987654320988,0,0,0.04320987654320988,27.567901234567906,0)" xlink:href="#af"/><use transform="matrix(0.04320987654320988,0,0,0.04320987654320988,32.70987654320988,0)" xlink:href="#al"/><use transform="matrix(0.04320987654320988,0,0,0.04320987654320988,41.351851851851855,0)" xlink:href="#Z"/><use transform="matrix(0.04320987654320988,0,0,0.04320987654320988,49.99382716049383,0)" xlink:href="#am"/></g></defs></g></svg>